<svg width="32" height="32" viewBox="0 0 32 32" fill="none" xmlns="http://www.w3.org/2000/svg">
<g id="Group">
<path id="Vector" d="M8.5 3.14221C7.44652 3.14221 5.77985 3.14221 3.5 3.14221C2.11929 3.14221 1 4.1016 1 5.28507V28.8565C1 30.04 2.11929 30.9994 3.5 30.9994H28.5C29.8807 30.9994 31 30.04 31 28.8565V5.28507C31 4.1016 29.8807 3.14221 28.5 3.14221C26.2778 3.14221 24.6111 3.14221 23.5 3.14221" stroke="black" stroke-width="2" stroke-linecap="round" stroke-linejoin="round"/>
<path id="Vector_2" fill-rule="evenodd" clip-rule="evenodd" d="M11 0.999329H21C22.3807 0.999329 23.5 1.95872 23.5 3.14219C23.5 4.32565 22.3807 5.28504 21 5.28504H11C9.61929 5.28504 8.5 4.32565 8.5 3.14219C8.5 1.95872 9.61929 0.999329 11 0.999329Z" stroke="black" stroke-width="2" stroke-linecap="round" stroke-linejoin="round"/>
<path id="Vector_3" d="M13.5 11.7136H26" stroke="black" stroke-width="2" stroke-linecap="round" stroke-linejoin="round"/>
<path id="Vector_4" d="M13.5 18.1422H26" stroke="black" stroke-width="2" stroke-linecap="round" stroke-linejoin="round"/>
<path id="Vector_5" d="M13.5 24.5708H26" stroke="black" stroke-width="2" stroke-linecap="round" stroke-linejoin="round"/>
<path id="Vector_6" d="M6 11.7136H8.5" stroke="black" stroke-width="2" stroke-linecap="round" stroke-linejoin="round"/>
<path id="Vector_7" d="M6 18.1422H8.5" stroke="black" stroke-width="2" stroke-linecap="round" stroke-linejoin="round"/>
<path id="Vector_8" d="M6 24.5708H8.5" stroke="black" stroke-width="2" stroke-linecap="round" stroke-linejoin="round"/>
</g>
</svg>
