<svg width="32" height="32" viewBox="0 0 32 32" fill="none" xmlns="http://www.w3.org/2000/svg">
<g id="Settings">
<path id="Vector" d="M15.9999 23.869C20.34 23.869 23.8584 20.3491 23.8584 16.007C23.8584 11.6649 20.34 8.1449 15.9999 8.1449C11.6598 8.1449 8.14148 11.6649 8.14148 16.007C8.14148 20.3491 11.6598 23.869 15.9999 23.869Z" stroke="black" stroke-width="2" stroke-miterlimit="10" stroke-linecap="round" stroke-linejoin="round"/>
<path id="Vector_2" d="M31 12.9034H27.6498C27.057 11.4828 27.0156 11.3724 26.4366 9.95172L28.8079 7.57931L24.4099 3.1931L22.0386 5.56552C20.6186 4.97241 20.5083 4.93103 19.0882 4.35172V1H12.8842V4.35172C11.4642 4.94483 11.3539 4.98621 9.93382 5.56552L7.59007 3.1931L3.1921 7.5931L5.56342 9.96552C4.97059 11.3862 4.92923 11.4966 4.35018 12.9172H1V19.1241H4.35018C4.94302 20.5448 4.98438 20.6552 5.56342 22.0759L3.1921 24.4207L7.57629 28.8069L9.94761 26.4345C11.3676 27.0276 11.4779 27.069 12.898 27.6483V31H19.102V27.6483C20.5221 27.0552 20.6324 27.0138 22.0524 26.4345L24.4237 28.8069L28.8079 24.4207L26.4366 22.0483C27.0294 20.6276 27.0708 20.5172 27.6498 19.0965H31V12.9034Z" stroke="black" stroke-width="2" stroke-miterlimit="10" stroke-linecap="round" stroke-linejoin="round"/>
</g>
</svg>
