<svg xmlns="http://www.w3.org/2000/svg" fill="none" viewBox="0 0 32 32" stroke-linecap="round" stroke-linejoin="round"
  stroke-width="2">
  <path
    d="M8.5 3.142h-5c-1.38 0-2.5.96-2.5 2.143v23.572c0 1.183 1.12 2.142 2.5 2.142h25c1.38 0 2.5-.959 2.5-2.142V5.285c0-1.183-1.12-2.143-2.5-2.143h-5" />
  <path
    d="M11 1h10c1.38 0 2.5.959 2.5 2.142 0 1.184-1.12 2.143-2.5 2.143H11c-1.38 0-2.5-.96-2.5-2.143C8.5 1.96 9.62 1 11 1Z"
    clip-rule="evenodd" />
  <path d="M13.5 11.714H26M13.5 18.142H26M13.5 24.57H26M6 11.714h2.5M6 18.142h2.5M6 24.57h2.5" />
</svg>